<svg width="40" height="40" viewBox="0 0 40 40" fill="none" xmlns="http://www.w3.org/2000/svg">
<g clip-path="url(#clip0_63_190)">
<path d="M4.08203 0H35.9961L36.0742 0.0390625L36.6602 0.175781L37.0508 0.3125L37.5195 0.527344L37.9688 0.800781L38.3203 1.07422L38.5742 1.30859L38.8477 1.58203L39.0625 1.85547L39.2188 2.07031L39.375 2.32422L39.6094 2.77344L39.7656 3.16406L39.9023 3.65234L39.9609 3.92578L40 3.94531V36.0156L39.9609 36.0352L39.8633 36.4844L39.7461 36.875L39.5898 37.2656L39.3555 37.7148L39.1211 38.0664L38.9062 38.3398L38.6719 38.5938L38.4375 38.8281L38.1641 39.043L37.832 39.2773L37.4219 39.5117L36.9727 39.707L36.5625 39.8438L35.8789 40H4.12109L3.86719 39.9414L3.37891 39.8242L2.96875 39.6875L2.57812 39.5117L2.22656 39.3164L1.99219 39.1602L1.73828 38.9648L1.34766 38.6133L1.07422 38.3203L0.878906 38.0664L0.683594 37.7734L0.507812 37.4609L0.3125 37.0508L0.15625 36.582L0.0195312 35.9766L0 35.918V4.0625L0.0390625 3.94531L0.136719 3.49609L0.253906 3.10547L0.410156 2.73438L0.566406 2.42188L0.761719 2.08984L1.03516 1.71875L1.11328 1.62109H1.15234L1.19141 1.54297L1.44531 1.26953L1.60156 1.13281L1.91406 0.878906L2.24609 0.664062L2.55859 0.488281L2.89062 0.332031L3.20312 0.214844L3.71094 0.078125L4.08203 0ZM4.72656 3.125L4.45312 3.14453L4.14062 3.22266L3.82812 3.37891L3.57422 3.59375L3.39844 3.80859L3.24219 4.10156L3.16406 4.375L3.14453 4.53125L3.125 5.03906V35.1367L3.14453 35.4883L3.20312 35.7812L3.30078 36.0156L3.41797 36.2109L3.55469 36.3867H3.59375L3.61328 36.4453L3.84766 36.6211L4.12109 36.7578L4.41406 36.8359L4.55078 36.8555L21.543 36.875L21.5625 36.7969V24.1602L21.4844 24.1406L16.875 24.1211V19.3164L16.8945 19.2969H21.5039L21.5625 19.2773V15.957L21.6016 15.2148L21.6992 14.5508L21.875 13.8477L22.1094 13.1836L22.3242 12.7148L22.4805 12.4219L22.7148 12.0312L22.9492 11.6992L23.2031 11.3672L23.2227 11.3086H23.2617L23.3594 11.1914V11.1523H23.3984L23.5352 10.9961L23.7109 10.8008L23.9844 10.5469L24.1992 10.3711L24.5508 10.0977L24.9023 9.86328L25.293 9.62891L25.8398 9.35547L26.3477 9.16016L26.6992 9.04297L27.2461 8.90625L27.832 8.80859L28.3008 8.76953L28.7695 8.75H31.9141L31.9531 8.76953V13.5938H28.8477L28.3398 13.6328L28.0664 13.6914L27.832 13.7695L27.5195 13.9258L27.3047 14.082L27.0508 14.2969L26.8359 14.5703L26.6797 14.8438L26.582 15.0391L26.4844 15.332L26.4258 15.7422L26.4062 16.1523V19.2773L26.5234 19.2969H32.0117L31.9922 19.5312L31.7969 20.7031L31.4258 22.9688L31.2305 24.1211L26.4258 24.1406L26.4062 24.4336V36.8555L26.543 36.875L35.4297 36.8555L35.7031 36.8164L35.957 36.7188L36.2109 36.582L36.4453 36.3672L36.582 36.2109L36.7383 35.9375L36.8164 35.6836L36.8555 35.4492V4.57031L36.8164 4.29688L36.7188 4.02344L36.6016 3.80859L36.4258 3.59375L36.25 3.4375L35.957 3.26172L35.7422 3.18359L35.5078 3.14453L35.2734 3.125H4.72656Z" fill="black"/>
</g>
<defs>
<clipPath id="clip0_63_190">
<rect width="40" height="40" fill="white"/>
</clipPath>
</defs>
</svg>
