<svg width="40" height="40" viewBox="0 0 40 40" fill="none" xmlns="http://www.w3.org/2000/svg">
<g clip-path="url(#clip0_63_193)">
<path d="M9.08203 0H31.0742V0.0195312L32.0312 0.175781L32.6367 0.3125L33.1641 0.46875L33.5547 0.605469L34.1797 0.859375L34.7461 1.13281L35.1953 1.38672L35.5664 1.62109L35.957 1.89453L36.2109 2.08984L36.5234 2.34375L36.7578 2.55859L36.9141 2.69531L37.4219 3.20312L37.5586 3.35938L37.7734 3.61328L38.0273 3.94531L38.2812 4.29688L38.4961 4.62891L38.75 5.05859L38.9844 5.50781L39.1602 5.87891L39.375 6.40625L39.6094 7.10938L39.7852 7.8125L39.9023 8.45703L39.9609 8.86719H40V31.0742H39.9609L39.8633 31.7578L39.7461 32.3633L39.5898 32.9492L39.375 33.5938L39.1797 34.0625L38.9648 34.5312L38.7305 34.9805L38.4961 35.3711L38.2617 35.7227L38.0273 36.0547L37.7734 36.3672L37.6172 36.5625L37.5586 36.6406H37.5195L37.4805 36.7188L37.1875 37.0312L36.8555 37.3633L36.6992 37.5L36.4062 37.7539L36.1523 37.9492L35.918 38.125L35.6641 38.3008L35.2344 38.5742L34.7852 38.8281L34.4727 38.9844L34.0234 39.1992L33.5156 39.3945L32.9297 39.5898L32.3438 39.7461L31.6211 39.8828L30.957 39.9805L30.8789 40H9.14062L8.02734 39.8242L7.42188 39.6875L6.81641 39.5117L6.21094 39.2969L5.50781 38.9844L5.09766 38.7695L4.72656 38.5547L4.27734 38.2617L3.92578 38.0078L3.61328 37.7539L3.41797 37.5977L3.16406 37.3633L2.87109 37.0898L2.77344 36.9922V36.9531H2.73438L2.59766 36.7969L2.34375 36.5234L2.12891 36.25L1.85547 35.8984L1.50391 35.3711L1.32812 35.0781L1.13281 34.7266L0.878906 34.2188L0.683594 33.75L0.507812 33.2617L0.332031 32.6953L0.214844 32.207L0.117188 31.6797L0.0195312 31.0156L0 30.9375V9.02344L0.0585938 8.69141L0.175781 7.98828L0.292969 7.46094L0.449219 6.91406L0.605469 6.44531L0.820312 5.91797L1.03516 5.44922L1.26953 5.01953L1.48438 4.64844L1.67969 4.35547L1.89453 4.04297L2.08984 3.78906L2.24609 3.59375L2.38281 3.41797H2.42188L2.46094 3.33984L2.75391 3.02734L2.8125 2.94922H2.85156L2.89062 2.87109H2.92969V2.83203H2.96875V2.79297L3.125 2.65625L3.39844 2.40234L3.61328 2.22656L3.90625 1.99219L4.25781 1.73828L4.58984 1.52344L4.84375 1.36719L5.25391 1.13281L5.68359 0.917969L6.23047 0.683594L6.71875 0.507812L7.22656 0.351562L7.69531 0.234375L8.37891 0.0976562L9.08203 0ZM9.72656 4.00391L9.19922 4.04297L8.73047 4.12109L8.24219 4.23828L7.77344 4.39453L7.32422 4.58984L6.91406 4.80469L6.69922 4.94141L6.46484 5.09766L6.13281 5.35156L5.83984 5.625L5.72266 5.72266L5.58594 5.87891L5.35156 6.13281L5.05859 6.52344L4.82422 6.89453L4.58984 7.34375L4.41406 7.73438L4.23828 8.26172L4.12109 8.76953L4.0625 9.08203L4.02344 9.47266L4.00391 9.84375V30.1953L4.0625 30.8984L4.16016 31.4258L4.29688 31.9336L4.49219 32.4414L4.72656 32.9297L4.94141 33.3008L5.17578 33.6328L5.39062 33.9062L5.625 34.1602L5.97656 34.5117L6.19141 34.6875L6.44531 34.8828L6.83594 35.1367L7.1875 35.332L7.51953 35.4883L8.02734 35.6836L8.51562 35.8203L9.00391 35.918L9.57031 35.9766L10.0391 35.9961H29.9219L30.4297 35.9766L30.8398 35.9375L31.2891 35.8594L31.6992 35.7617L32.2852 35.5664L32.6367 35.4102L32.9492 35.2539L33.2227 35.0977L33.457 34.9414L33.7305 34.7461L34.0039 34.5117L34.1992 34.3359L34.4531 34.082V34.043H34.4922L34.668 33.8281L34.9219 33.4961L35.1562 33.125L35.3516 32.7734L35.5273 32.4023L35.6836 31.9727L35.8203 31.4844L35.918 30.9961L35.9766 30.4297V9.57031L35.9375 9.16016L35.8398 8.59375L35.7227 8.16406L35.5859 7.75391L35.3906 7.30469L35.1562 6.85547L34.8438 6.38672L34.6875 6.19141L34.5117 5.97656L34.2383 5.68359L34.1016 5.54688L33.8867 5.37109L33.5938 5.13672L33.2031 4.88281L32.7148 4.60938L32.2656 4.41406L31.6797 4.21875L31.2695 4.12109L30.7617 4.04297L30.1367 4.00391H9.72656Z" fill="black"/>
<path d="M19.707 9.98047H20.3125L20.918 10.0195L21.4453 10.0781L22.0508 10.1758L22.7148 10.332L23.2812 10.5078L23.7695 10.6836L24.3555 10.9375L24.7852 11.1523L25.2539 11.4258L25.5664 11.6211L25.8984 11.8555L26.2109 12.0898L26.5234 12.3438L26.7578 12.5586L26.9141 12.6953L27.4219 13.2031L27.5586 13.3594L27.7734 13.6133L28.0273 13.9453L28.2812 14.2969L28.4961 14.6289L28.75 15.0586L29.0234 15.5859L29.2188 16.0156L29.4531 16.6211L29.6289 17.1875L29.7852 17.8125L29.9023 18.457L29.9805 19.1211L30 19.4336V20.5664L29.9609 21.0742L29.8828 21.6602L29.7461 22.3633L29.5898 22.9492L29.375 23.5938L29.1797 24.0625L28.9648 24.5312L28.7305 24.9805L28.4961 25.3711L28.2617 25.7227L28.0273 26.0547L27.7734 26.3672L27.6172 26.5625L27.4023 26.7969L27.2266 26.9922L26.8555 27.3633L26.6992 27.5L26.4062 27.7539L26.0547 28.0273L25.7227 28.2617L25.332 28.5156L24.8633 28.7891L24.4922 28.9844L24.0234 29.1992L23.3594 29.4531L22.7344 29.6484L22.1484 29.7852L21.3477 29.9219L20.7617 29.9805L20.4492 30H19.4922L18.7891 29.9414L18.2422 29.8633L17.7539 29.7656L17.1289 29.6094L16.4258 29.375L15.9375 29.1797L15.3906 28.9258L14.9219 28.6719L14.5117 28.418L14.2773 28.2617L13.9258 28.0078L13.6133 27.7539L13.418 27.5977L13.1641 27.3633L12.8711 27.0898L12.7734 26.9922V26.9531H12.7344L12.5977 26.7969L12.3438 26.5234L12.1289 26.25L11.8555 25.8984L11.5039 25.3711L11.3281 25.0781L11.1328 24.7266L10.8789 24.2188L10.6836 23.75L10.5078 23.2617L10.332 22.6953L10.1953 22.1094L10.0977 21.5625L10.0195 20.918L9.98047 20.2539V19.7266L10.0195 19.0625L10.0977 18.418L10.1953 17.8906L10.332 17.3047L10.5078 16.7188L10.6445 16.3477L10.8203 15.918L11.0352 15.4492L11.2695 15.0195L11.4453 14.707L11.7578 14.2383L11.9531 13.9648L12.2266 13.6133L12.3828 13.418H12.4219L12.4609 13.3398L12.7344 13.0469L12.8125 12.9492H12.8516L12.8906 12.8711H12.9297V12.832H12.9688V12.793L13.125 12.6562L13.3984 12.4023L13.6133 12.2266L13.9062 11.9922L14.2578 11.7383L14.5898 11.5234L14.9414 11.3086L15.3711 11.0742L15.8984 10.8203L16.4844 10.5859L17.1484 10.3711L17.7734 10.2148L18.3984 10.0977L19.043 10.0195L19.707 9.98047ZM19.6875 14.0039L19.1992 14.043L18.6328 14.1406L18.1836 14.2578L17.7734 14.3945L17.3242 14.5898L16.9141 14.8047L16.6992 14.9414L16.4648 15.0977L16.1328 15.3516L15.8398 15.625L15.7227 15.7227L15.5859 15.8789L15.3516 16.1328L15.1172 16.4453L14.8828 16.7969L14.707 17.1094L14.4531 17.6367L14.2773 18.1445L14.1406 18.6523L14.0625 19.082L14.0039 19.7852V20.2344L14.0625 20.8984L14.1797 21.5039L14.3164 21.9727L14.4727 22.4023L14.7461 22.9688L14.9414 23.3008L15.1758 23.6328L15.3906 23.9062L15.625 24.1602L15.9766 24.5117L16.1914 24.6875L16.4453 24.8828L16.8359 25.1367L17.1875 25.332L17.5195 25.4883L17.9102 25.6445L18.3594 25.7812L18.7891 25.8789L19.3359 25.957L19.5703 25.9766H20.4297L20.8398 25.9375L21.2891 25.8594L21.6992 25.7617L22.2852 25.5664L22.6367 25.4102L22.9492 25.2539L23.2227 25.0977L23.457 24.9414L23.7305 24.7461L24.0039 24.5117L24.1992 24.3359L24.4531 24.082V24.043H24.4922L24.668 23.8281L24.9219 23.4961L25.1562 23.125L25.3516 22.7734L25.5273 22.4023L25.6836 21.9727L25.8203 21.4844L25.918 21.0156L25.9766 20.4688V19.5703L25.9375 19.1797L25.8398 18.5938L25.6641 17.9688L25.4492 17.4219L25.2344 16.9922L24.9805 16.582L24.7852 16.3086L24.5117 15.9766L24.2773 15.7227L24.1016 15.5469L23.8867 15.3711L23.5938 15.1367L23.3008 14.9414L22.793 14.6484L22.3633 14.4531L21.875 14.2773L21.4453 14.1602L20.918 14.0625L20.5664 14.0234L20.2344 14.0039H19.6875Z" fill="black"/>
<path d="M29.7656 7.98828H30.2148L30.5273 8.04688L30.8398 8.16406L31.0938 8.30078L31.3672 8.51562L31.5234 8.67188L31.7188 8.94531L31.875 9.25781L31.9727 9.57031L32.0117 9.80469V10.1953L31.9336 10.5859L31.7969 10.918L31.6211 11.1914L31.4648 11.3867L31.3672 11.4844H31.3281V11.5234L31.0547 11.7188L30.7227 11.875L30.3906 11.9727L30.1758 12.0117H29.8242L29.4922 11.9531L29.1602 11.8359L28.8867 11.6797L28.6914 11.5234L28.5156 11.3672L28.3203 11.1133L28.1641 10.8398L28.0469 10.5273L27.9883 10.2344V9.76562L28.0664 9.41406L28.1641 9.14062L28.3398 8.84766L28.4961 8.65234L28.7305 8.41797L29.0234 8.22266L29.3359 8.08594L29.6484 8.00781L29.7656 7.98828Z" fill="black"/>
</g>
<defs>
<clipPath id="clip0_63_193">
<rect width="40" height="40" fill="white"/>
</clipPath>
</defs>
</svg>
