<svg width="32" height="32" viewBox="0 0 32 32" fill="none" xmlns="http://www.w3.org/2000/svg">
<path d="M1.15625 0H3.76562L4.29688 0.09375L4.6875 0.1875L4.95312 0.265625L5.39062 0.4375L5.76562 0.625L6.125 0.84375L6.35938 1.01562L6.57812 1.1875L6.75 1.32812V1.35938L6.8125 1.39062L7.09375 1.67188L7.23438 1.84375L7.39062 2.03125L7.57812 2.29688L7.70312 2.5L7.84375 2.75L7.96875 3L8.125 3.375L8.23438 3.70312L8.32812 4.07812L8.39062 4.4375L8.42188 4.70312L8.4375 4.9375V5.20312L8.40625 5.32812L8.32812 5.45312L8.20312 5.5625L8 5.625H7.875L7.6875 5.54688L7.5625 5.42188L7.5 5.25L7.45312 4.64062L7.39062 4.26562L7.28125 3.85938L7.1875 3.59375L7.0625 3.3125L6.90625 3.01562L6.65625 2.64062L6.4375 2.375L6.25 2.17188L6.01562 1.95312L5.79688 1.78125L5.42188 1.53125L5 1.3125L4.64062 1.17188L4.32812 1.07812L3.95312 1L3.70312 0.96875L3.45312 0.953125H1.3125L1.17188 1.01562L1.04688 1.125L0.96875 1.26562L0.953125 1.34375V1.46875L1.01562 1.64062L1.14062 1.78125L1.26562 1.84375L1.79688 1.89062L2.09375 1.9375L2.39062 2.01562L2.71875 2.14062L3.03125 2.29688L3.29688 2.46875L3.5 2.625L3.6875 2.79688L3.89062 3L4.09375 3.26562L4.28125 3.5625L4.46875 3.95312L4.57812 4.28125L4.64062 4.5625L4.6875 4.92188L4.70312 5.5625V9.85938L4.71875 10.3594L4.78125 11.0469L4.85938 11.5781L4.95312 12.0156L5.0625 12.4375L5.23438 12.9844L5.4375 13.5L5.60938 13.8906L5.75 14.1562L5.875 14.4062L6.04688 14.7031L6.23438 15L6.4375 15.2969L6.65625 15.5938L6.875 15.8594L7.01562 16.0312L7.21875 16.25V16.2812H7.25L7.35938 16.4062L7.59375 16.6406L7.71875 16.75L7.84375 16.875L8.01562 17.0156L8.23438 17.2031L8.5 17.4062L8.76562 17.5938L9 17.75L9.29688 17.9375L9.625 18.125L10.0781 18.3594L10.4688 18.5312L10.9062 18.7031L11.4844 18.8906L11.9531 19.0156L12.4062 19.1094L12.9219 19.1875L13.375 19.2344L14.2031 19.2812L14.3594 19.3281L14.5156 19.4688L14.5781 19.5938L14.5938 19.6406V26.9844L14.5625 27.3438L14.4844 27.7031L14.3594 28.0781L14.1719 28.4688L13.9844 28.75L13.8281 28.9531L13.6406 29.1562L13.5156 29.2812L13.3438 29.4219L13.1094 29.5938L12.8125 29.7656L12.5469 29.8906L12.1719 30.0156L11.7812 30.0938L11.4531 30.125L11.1562 30.1562L10.9844 30.2656L10.8906 30.4062L10.8594 30.5V30.6875L10.9531 30.875L11.0781 30.9844L11.1875 31.0312L11.2656 31.0469H20.6875L20.8438 31.0156L20.9688 30.9375L21.0469 30.8594L21.1094 30.7656L21.1406 30.625L21.125 30.4688L21.0469 30.3125L20.9219 30.2031L20.75 30.1406L20.3281 30.1094L19.9531 30.0469L19.625 29.9531L19.3438 29.8438L18.9844 29.6562L18.7969 29.5312L18.5938 29.375L18.4375 29.2344L18.1875 28.9844L17.9844 28.7188L17.7812 28.3906L17.6406 28.0938L17.5 27.6719L17.4375 27.3906L17.4062 27.0938L17.3906 26.7969V19.8125L17.4062 19.625L17.4688 19.4844L17.5312 19.4062L17.6562 19.3125L17.75 19.2812L18.5938 19.2344L19.1719 19.1719L19.5625 19.1094L19.9531 19.0312L20.4531 18.9062L20.9531 18.75L21.4844 18.5469L21.9062 18.3594L22.25 18.1875L22.6094 17.9844L22.9531 17.7812L23.1094 17.6719L23.3438 17.5156L23.5938 17.3281L23.8281 17.1406L24 17L24.1719 16.8438L24.2969 16.7344L24.4219 16.6094L24.5469 16.5L24.7812 16.25L24.9844 16.0312L25.125 15.8594L25.3281 15.6094L25.5469 15.3125L25.7969 14.9375L25.9531 14.6875L26.1875 14.2812L26.4375 13.7812L26.6562 13.2656L26.8438 12.7344L27 12.1875L27.1094 11.7188L27.2031 11.1719L27.25 10.7656L27.2812 10.2969L27.2969 8.89062V5.39062L27.3125 4.9375L27.3594 4.53125L27.4531 4.17188L27.5781 3.82812L27.7344 3.53125L27.875 3.29688L28.0469 3.07812L28.1875 2.92188L28.2969 2.79688L28.4531 2.65625L28.6875 2.46875L29.0156 2.26562L29.375 2.09375L29.7031 1.98438L30.0781 1.90625L30.6875 1.84375L30.8438 1.78125L30.9531 1.6875L31.0312 1.53125L31.0469 1.35938L31 1.20312L30.9375 1.10938L30.8125 1L30.7344 0.96875L30.6406 0.953125H28.5L28.1406 0.984375L27.7812 1.04688L27.4062 1.15625L27.1094 1.26562L26.8594 1.375L26.5156 1.5625L26.2188 1.76562L26.0625 1.89062L25.8594 2.0625L25.5625 2.35938L25.3906 2.57812L25.2188 2.8125L25.0312 3.125L24.9062 3.375L24.7656 3.70312L24.6562 4.0625L24.5781 4.40625L24.5312 4.73438L24.5156 4.95312V9.70312L24.5 10.2031L24.4375 10.7969L24.3594 11.2344L24.25 11.6719L24.0625 12.2344L23.8594 12.7031L23.6562 13.0938L23.4375 13.4531L23.25 13.7188L23.0938 13.9219L22.9531 14.0938L22.75 14.3281L22.5156 14.5781L22.3125 14.7656L22.0781 14.9688L21.8125 15.1719L21.5781 15.3438L21.2812 15.5312L20.8594 15.7656L20.4219 15.9688L20 16.125L19.7031 16.2188L19.2656 16.3281L18.7031 16.4219L18.1875 16.4688H17.7969L17.625 16.4062L17.4844 16.2812L17.4062 16.125L17.3906 16V5.20312L17.4219 4.71875L17.5 4.32812L17.5781 4.0625L17.7188 3.73438L17.875 3.4375L18.0625 3.17188L18.2031 3L18.3906 2.79688L18.5938 2.60938L18.875 2.40625L19.1094 2.26562L19.3594 2.14062L19.6406 2.03125L20 1.9375L20.2812 1.89062L20.7656 1.84375L20.9062 1.79688L21.0312 1.70312L21.1094 1.57812L21.1406 1.45312V1.34375L21.0781 1.17188L20.9531 1.03125L20.8281 0.96875L20.7344 0.953125H11.2188L11.0938 1L10.9375 1.14062L10.875 1.26562L10.8594 1.3125V1.5L10.9531 1.6875L11.0781 1.79688L11.1875 1.84375L11.2969 1.85938L11.7031 1.89062L12 1.9375L12.3438 2.03125L12.6562 2.15625L12.9062 2.28125L13.1875 2.45312L13.4062 2.625L13.5938 2.79688L13.7969 3L13.9688 3.21875L14.125 3.45312L14.2656 3.70312L14.4062 4.03125L14.5 4.34375L14.5625 4.64062L14.5938 4.95312V16.0781L14.5469 16.2188L14.4375 16.3594L14.2812 16.4531L14.2344 16.4688H13.7969L13.2969 16.4219L12.7344 16.3281L12.2344 16.2031L11.8125 16.0625L11.4375 15.9062L11.0469 15.7188L10.6562 15.5L10.4219 15.3438L10.2031 15.1875L9.95312 15L9.79688 14.8594L9.67188 14.75L9.51562 14.6094L9.21875 14.3125L9.07812 14.1406L8.89062 13.9219L8.6875 13.6406L8.53125 13.4062L8.34375 13.0938L8.125 12.6719L7.98438 12.3594L7.82812 11.9375L7.6875 11.4688L7.59375 11.0312L7.53125 10.6094L7.5 10.2344L7.48438 9.60938V7.71875L7.5 6.90625L7.59375 6.71875L7.73438 6.60938L7.90625 6.54688L8.04688 6.5625L8.21875 6.625L8.3125 6.70312L8.40625 6.84375L8.4375 6.96875L8.45312 10.1406L8.5 10.6406L8.57812 11.0781L8.70312 11.5469L8.84375 11.9375L9.01562 12.3281L9.25 12.7656L9.46875 13.0938L9.65625 13.3438L9.79688 13.5156L9.9375 13.6719L10.0469 13.7969L10.2188 13.9688L10.25 13.9844V14.0156L10.3125 14.0469L10.5 14.2188L10.8125 14.4531L11.1406 14.6719L11.4688 14.8594L11.8906 15.0625L12.2969 15.2188L12.7812 15.3594L13.3438 15.4688L13.6406 15.5V5.07812L13.6094 4.75L13.5469 4.48438L13.4375 4.1875L13.2969 3.92188L13.1406 3.70312L13 3.54688L12.9375 3.46875L12.7656 3.32812L12.5469 3.17188L12.2188 3L11.8906 2.89062L11.6406 2.84375L11.5312 2.82812L11.0938 2.79688L10.8438 2.73438L10.625 2.64062L10.4219 2.5L10.2812 2.375L10.125 2.17188L10 1.9375L9.92188 1.67188L9.90625 1.59375V1.21875L9.96875 0.953125L10.0938 0.6875L10.25 0.46875L10.3906 0.328125L10.5938 0.1875L10.7812 0.09375L11.0625 0H20.9219L21.25 0.109375L21.4531 0.21875L21.5938 0.328125L21.7188 0.4375L21.875 0.640625L22 0.890625L22.0625 1.09375L22.0938 1.26562V1.54688L22.0312 1.82812L21.9531 2.01562L21.8906 2.14062L21.7656 2.3125L21.6094 2.46875L21.4688 2.57812L21.2344 2.70312L20.9688 2.78125L20.7031 2.8125L20.3438 2.84375L20.0469 2.90625L19.8125 2.98438L19.5469 3.10938L19.3125 3.26562L19.1562 3.39062L19.0156 3.51562L18.9062 3.64062L18.7188 3.89062L18.5469 4.21875L18.4531 4.46875L18.375 4.8125L18.3594 4.96875L18.3438 15.5156L18.8281 15.4375L19.2812 15.3438L19.7031 15.2188L20.1406 15.0469L20.5938 14.8281L20.9062 14.6406L21.0938 14.5156L21.3125 14.3594L21.5781 14.1406L21.9531 13.7969L22.0625 13.6719L22.2344 13.4844L22.4375 13.2188L22.625 12.9531L22.7656 12.7188L22.9062 12.4688L23.1094 12.0469L23.2344 11.7188L23.375 11.25L23.4688 10.7969L23.5312 10.2812L23.5469 9.98438L23.5625 4.85938L23.6094 4.39062L23.6875 3.98438L23.8125 3.53125L23.9688 3.125L24.1562 2.73438L24.3281 2.4375L24.4844 2.20312L24.6719 1.95312L24.8125 1.78125L25.0312 1.54688L25.2656 1.3125L25.6094 1.03125L25.875 0.84375L26.1562 0.671875L26.5781 0.453125L26.875 0.328125L27.2969 0.1875L27.7656 0.078125L28.2344 0H30.8281L31.1562 0.109375L31.3594 0.21875L31.5781 0.390625L31.7031 0.53125L31.8125 0.703125L31.9062 0.890625L31.9688 1.0625L32 1.20312V1.625L31.9219 1.875L31.8438 2.04688L31.7344 2.23438L31.5625 2.42188L31.4062 2.5625L31.1406 2.70312L30.9375 2.76562L30.7812 2.79688L30.25 2.84375L29.9531 2.90625L29.7188 2.98438L29.4531 3.10938L29.2188 3.26562L29.0625 3.39062L28.9062 3.53125L28.7656 3.70312L28.625 3.89062L28.4375 4.25L28.3281 4.57812L28.2812 4.84375L28.2656 5.01562L28.25 9.92188L28.2344 10.4375L28.2031 10.8438L28.1406 11.3594L28.0625 11.8281L27.9531 12.3281L27.8281 12.7812L27.7031 13.1719L27.5469 13.6094L27.3438 14.0938L27.0938 14.6094L26.875 15.0156L26.625 15.4219L26.3906 15.7656L26.2344 15.9844L26.0938 16.1719L25.8906 16.4219L25.75 16.5938L25.5781 16.7812L25.4688 16.9062L25.25 17.1406L25.0312 17.3594L24.9062 17.4688L24.7031 17.6562L24.5312 17.7969L24.3281 17.9688L24.0781 18.1562L23.7969 18.3594L23.4688 18.5781L23.1406 18.7812L22.75 19L22.4844 19.1406L22.0469 19.3438L21.6719 19.5L21.25 19.6562L20.8125 19.7969L20.2812 19.9375L19.75 20.0469L19.375 20.1094L18.6875 20.1875L18.3594 20.2188V26.9844L18.3906 27.2656L18.4688 27.5781L18.5938 27.875L18.7344 28.125L18.8594 28.2969L19 28.4531L19.1719 28.625L19.3906 28.7812L19.625 28.9219L19.9219 29.0469L20.2031 29.125L20.3906 29.1562L20.9531 29.2031L21.1719 29.2656L21.4219 29.3906L21.5781 29.5L21.7188 29.625L21.875 29.8281L22 30.0781L22.0625 30.2812L22.0938 30.4531V30.7188L22.0469 30.9688L21.9688 31.1719L21.8906 31.3281L21.7656 31.5L21.6094 31.6562L21.4688 31.7656L21.2344 31.8906L21 31.9688L20.875 32H11.1094L10.7969 31.9062L10.5469 31.7812L10.375 31.6406L10.2969 31.5781L10.125 31.3594L10 31.125L9.92188 30.8594L9.90625 30.7812V30.4219L9.96875 30.1406L10.0938 29.875L10.25 29.6562L10.4062 29.5L10.6406 29.3438L10.8594 29.25L11.0469 29.2031L11.5781 29.1562L11.8594 29.1094L12.2344 28.9844L12.5625 28.8125L12.7812 28.6562L12.9844 28.4688L13.1406 28.2969L13.2812 28.0938L13.4219 27.8438L13.5312 27.5625L13.6094 27.25L13.6406 26.9375V20.2188L12.8438 20.1406L12.4062 20.0781L11.8438 19.9688L11.4062 19.8594L10.9844 19.7344L10.4844 19.5625L10.0469 19.3906L9.60938 19.1875L9.23438 19L8.98438 18.8594L8.67188 18.6719L8.35938 18.4688L8.10938 18.2969L7.92188 18.1562L7.65625 17.9531L7.45312 17.7812L7.28125 17.6406L7.15625 17.5156L7.03125 17.4062L6.84375 17.2344L6.60938 17L6.5 16.875L6.29688 16.6562L6.15625 16.4844L5.98438 16.2812L5.75 15.9688L5.5625 15.7031L5.375 15.4219L5.17188 15.0938L4.95312 14.7031L4.8125 14.4375L4.57812 13.9219L4.40625 13.5L4.1875 12.8594L4.03125 12.2812L3.90625 11.6875L3.82812 11.1719L3.78125 10.75L3.75 10.2344L3.73438 5.0625L3.70312 4.76562L3.625 4.4375L3.53125 4.1875L3.39062 3.92188L3.23438 3.70312L3.09375 3.54688L3.01562 3.45312L2.79688 3.28125L2.64062 3.17188L2.42188 3.04688L2.09375 2.92188L1.84375 2.85938L1.60938 2.82812L1.1875 2.79688L0.9375 2.73438L0.75 2.65625L0.578125 2.54688L0.421875 2.40625L0.3125 2.29688L0.171875 2.09375L0.0625 1.84375L0 1.60938V1.17188L0.125 0.796875L0.25 0.59375L0.390625 0.421875L0.546875 0.28125L0.765625 0.140625L1.04688 0.03125L1.15625 0Z" fill="#010000"/>
</svg>
