<svg width="40" height="40" viewBox="0 0 40 40" fill="none" xmlns="http://www.w3.org/2000/svg">
<g id="2jO5JRWfu0zneu7APPnzowD7Iy2 1">
<path id="Vector" d="M19.7852 1.21094H20.2734L20.9375 1.23047L21.8164 1.28906L22.7148 1.38672L23.6719 1.54297L24.3945 1.69922L25.1562 1.89453L25.6836 2.05078L26.3867 2.28516L27.0117 2.51953L27.5195 2.73438L28.0859 2.98828L28.8281 3.35938L29.2773 3.61328L29.6875 3.84766L30.0586 4.08203L30.3906 4.29688L30.7031 4.51172L31.0352 4.74609L31.4453 5.05859L31.6406 5.21484L31.9141 5.42969L32.1875 5.66406L32.4805 5.91797L32.7148 6.13281L32.9688 6.36719L33.2422 6.64062L33.3594 6.73828L33.4961 6.89453L33.6914 7.08984L33.8281 7.24609L34.082 7.51953L34.2578 7.73438L34.4336 7.92969L34.6484 8.20312L34.8828 8.49609L35.0586 8.73047L35.3125 9.08203L35.5859 9.47266L35.8008 9.80469L36.0938 10.2734L36.5625 11.0938L36.9531 11.875L37.3047 12.6758L37.5781 13.3789L37.8906 14.2969L38.125 15.1367L38.2812 15.7812L38.4375 16.582L38.5547 17.3633L38.6523 18.2617L38.6914 18.8672L38.7109 19.375V20.3711L38.6523 21.4062L38.5547 22.2852L38.4375 23.0664L38.3008 23.75L38.1055 24.5703L37.8906 25.3125L37.6562 26.0156L37.4219 26.6406L37.2266 27.1094L36.9141 27.8125L36.6016 28.4375L36.3672 28.8672L36.0938 29.3359L35.8398 29.7461L35.6641 30.0195L35.5078 30.2539L35.332 30.5078L35.0781 30.8594L34.9023 31.0938L34.6875 31.3672L34.4336 31.6797L34.2188 31.9336L34.043 32.1289L33.9062 32.2852L33.7305 32.4805L33.5742 32.6562H33.5352L33.4961 32.7344L32.9688 33.2617L32.8125 33.3984L32.6953 33.5156H32.6562V33.5547L32.5 33.6914L32.207 33.9453L31.9531 34.1602L31.6602 34.3945L31.0742 34.8438L30.6836 35.1172L30.3711 35.332L29.9414 35.6055L29.4531 35.8984L28.9062 36.2109L28.4961 36.4258L28.0469 36.6406L27.5391 36.875L26.9727 37.1094L26.4062 37.3242L25.7227 37.5586L24.8242 37.8125L24.1797 37.9688L23.418 38.125L22.5391 38.2617L21.6016 38.3594L21.0156 38.3984L20.4883 38.418H19.6875L18.8672 38.3789L18.0078 38.3008L17.2852 38.2031L16.6016 38.0859L15.7812 37.9102L14.9023 37.6758L14.1602 37.4414L13.5547 37.2266L12.9688 36.9922L12.3828 36.7383L11.8164 36.4648L11.2305 36.1719L10.8984 36.25L9.86328 36.5234L9.02344 36.7383L7.61719 37.1094L5.09766 37.7734L4.17969 38.0078L1.66016 38.6719L1.44531 38.7305L1.36719 38.7109L1.69922 37.4805L2.08984 36.0547L2.42188 34.8438L2.79297 33.4961L3.16406 32.1289L3.61328 30.4883L3.96484 29.1992V29.0625L3.82812 28.7891L3.67188 28.5156L3.41797 28.0273L3.16406 27.4805L2.91016 26.8945L2.63672 26.1914L2.40234 25.5078L2.22656 24.9219L2.01172 24.1016L1.83594 23.2617L1.69922 22.4219L1.60156 21.582L1.54297 20.8398L1.52344 20.3906V19.1992L1.5625 18.4375L1.66016 17.4805L1.77734 16.6992L1.89453 16.0742L2.08984 15.2344L2.22656 14.7266L2.36328 14.2578L2.63672 13.457L2.91016 12.7539L3.16406 12.168L3.45703 11.543L3.84766 10.8008L4.04297 10.4688L4.29688 10.0391L4.49219 9.74609L4.62891 9.53125L4.80469 9.27734L5.03906 8.94531L5.19531 8.73047L5.42969 8.41797L5.68359 8.10547L5.83984 7.91016L6.09375 7.61719L6.26953 7.40234H6.30859L6.34766 7.32422L6.44531 7.20703H6.48438L6.52344 7.12891L6.81641 6.83594L6.95312 6.67969L7.08984 6.54297L7.24609 6.40625L7.5 6.15234L7.65625 6.01562L7.87109 5.82031L8.08594 5.64453L8.28125 5.46875L8.47656 5.3125L8.82812 5.03906L9.08203 4.84375L9.41406 4.60938L9.80469 4.33594L10.2344 4.0625L10.6055 3.82812L11.1523 3.51562L11.6797 3.24219L12.0898 3.02734L12.7344 2.73438L13.3984 2.46094L13.9844 2.24609L14.7656 1.99219L15.5469 1.77734L16.3867 1.58203L17.2656 1.42578L17.9883 1.32812L18.5742 1.26953L19.2188 1.23047L19.7852 1.21094ZM19.6875 4.375L18.9062 4.41406L18.1641 4.49219L17.4805 4.58984L16.7969 4.72656L16.1523 4.88281L15.4883 5.07812L14.6875 5.35156L14.0234 5.625L13.3398 5.9375L12.7344 6.25L12.2656 6.52344L11.875 6.75781L11.582 6.95312L11.1914 7.22656L10.918 7.42188L10.6641 7.61719L10.3516 7.87109L10.1367 8.04688L9.92188 8.24219L9.72656 8.39844V8.4375L9.64844 8.47656L9.39453 8.73047L9.23828 8.86719L9.10156 9.00391L8.96484 9.16016L8.75 9.375V9.41406H8.71094L8.53516 9.62891L8.35938 9.82422L8.18359 10.0391L7.92969 10.3516L7.73438 10.6055L7.26562 11.2695L7.03125 11.6406L6.83594 11.9531L6.66016 12.2656L6.46484 12.6172L6.28906 12.9492L6.03516 13.4961L5.82031 13.9844L5.60547 14.5508L5.37109 15.2344L5.15625 15.9961L4.98047 16.7773L4.84375 17.5391L4.74609 18.3594L4.6875 19.2383V20.4492L4.74609 21.2891L4.84375 22.1094L5 22.9883L5.19531 23.8086L5.42969 24.5898L5.64453 25.2148L5.87891 25.8008L6.13281 26.3672L6.36719 26.8555L6.60156 27.2852L6.79688 27.6367L7.07031 28.0859L7.30469 28.457L7.38281 28.5742L7.36328 28.7695L6.95312 30.2734L6.50391 31.9141L6.11328 33.3398L5.85938 34.2578L5.87891 34.2969L11.4062 32.8516L11.6211 32.793L11.7383 32.8125L12.0117 32.9688L12.4805 33.2422L12.9102 33.4766L13.2422 33.6523L13.7891 33.9062L14.4727 34.1992L15 34.3945L15.7422 34.6289L16.4648 34.8242L17.0898 34.9609L17.6172 35.0586L18.3398 35.1562L19.1602 35.2344L19.4727 35.2539H20.6836L21.5234 35.1953L22.207 35.1172L22.9492 35L23.5938 34.8633L24.2188 34.707L24.9219 34.4922L25.5859 34.2578L26.1719 34.0234L26.7383 33.7695L27.1094 33.5742L27.5 33.3789L27.9688 33.1055L28.3594 32.8711L28.8867 32.5195L29.2383 32.2656L29.4727 32.0898L29.8242 31.8164L30.0391 31.6406L30.2344 31.4648L30.4492 31.2891L30.6445 31.0938L30.8008 30.957L31.3477 30.4102V30.3711L31.4062 30.3516L31.543 30.1953L31.5625 30.1367H31.6016L31.7773 29.9219L31.9727 29.707L32.4023 29.1602L32.5781 28.9258L32.832 28.5742L33.0273 28.2812L33.3008 27.8516L33.5938 27.3438L33.8281 26.9141L34.1211 26.3281L34.3945 25.7031L34.6289 25.0977L34.8633 24.3945L35.0586 23.7305L35.2344 22.9688L35.3711 22.2266L35.4688 21.4648L35.5273 20.7617L35.5469 20.3125V19.3359L35.5078 18.5938L35.4492 17.9688L35.3516 17.2852L35.2539 16.7383L35.0586 15.8984L34.8633 15.2148L34.5703 14.3555L34.3164 13.7305L34.0234 13.0859L33.7695 12.5781L33.5156 12.1289L33.2617 11.6992L33.0469 11.3672L32.8516 11.0742L32.6172 10.7422L32.4414 10.5078L32.0117 9.96094L31.8359 9.76562L31.6602 9.55078L31.4258 9.29688L31.2891 9.14062H31.25L31.2109 9.0625L30.8203 8.67188L30.6641 8.53516L30.4883 8.35938L30.2734 8.18359L30.0391 7.96875L29.7656 7.75391L29.4531 7.5L29.1016 7.24609L28.6523 6.93359L28.2812 6.69922L27.793 6.40625L27.4414 6.21094L26.9922 5.97656L26.4258 5.70312L25.7227 5.41016L25.0195 5.15625L24.3164 4.94141L23.457 4.72656L22.7539 4.58984L22.0898 4.49219L21.543 4.43359L20.957 4.39453L20.4688 4.375H19.6875Z" fill="black"/>
<path id="Vector_2" d="M13.4766 11.2109H14.043L14.668 11.2305L14.8633 11.2695L15.0195 11.3477L15.2344 11.5625L15.3906 11.8164L15.5664 12.207L15.8594 12.9297L16.0938 13.4961L16.4648 14.3945L16.7578 15.0977L16.9727 15.6055L17.0312 15.7812V16.1328L16.875 16.4453L16.6797 16.7578L16.2109 17.3828L15.957 17.6953L15.7422 17.9688L15.5664 18.2031L15.5078 18.3594V18.5938L15.5859 18.8086L15.8008 19.1602L15.9961 19.4727L16.2109 19.7852L16.4648 20.1367L16.7188 20.4688L16.9727 20.7812L17.207 21.0547L17.6758 21.5625L17.8516 21.7383L18.0078 21.875L18.2031 22.0703L18.418 22.2461L18.6914 22.4805L19.082 22.7734L19.4336 23.0273L19.9219 23.3398L20.2539 23.5352L20.6836 23.7695L21.1133 23.9844L21.7773 24.2773L22.0703 24.4141L22.3047 24.4727H22.5L22.6953 24.3945L22.8711 24.2578L23.0469 24.043L23.2812 23.7695L23.4961 23.5156L23.8477 23.0859L24.0039 22.8906L24.1797 22.6562L24.3359 22.4414L24.5117 22.2266L24.668 22.1094L24.8242 22.0508H25L25.3125 22.1289L25.918 22.3828L26.6992 22.7539L27.9883 23.3789L28.6523 23.7109L29.0234 23.8867L29.3164 24.0625L29.4531 24.1797L29.5312 24.3164L29.5703 24.6484L29.5312 25.2148L29.4336 25.7422L29.3164 26.1914L29.1992 26.5234L29.043 26.8164L28.8867 27.0312L28.8281 27.1094H28.7891L28.75 27.1875L28.5156 27.4219L28.3008 27.5977L28.0664 27.7734L27.7344 27.9883L27.4219 28.1641L27.1094 28.3203L26.7578 28.4766L26.3281 28.6133L26.0547 28.6719L25.5859 28.7305L25.3125 28.75H24.5898L24.1406 28.7109L23.5938 28.6133L23.0469 28.457L22.3438 28.2227L21.8359 28.0469L21.1328 27.7734L20.5664 27.5391L19.8828 27.2266L19.3945 26.9727L18.9258 26.6992L18.5352 26.4648L18.1836 26.2305L17.8516 25.9961L17.5781 25.8008L17.0312 25.3711L16.6992 25.0977L16.543 24.9609L16.3477 24.7852L16.1328 24.6094L15.9961 24.4727L15.8398 24.3359L15.5078 24.0039L15.4297 23.9453V23.9062L15.3516 23.8672V23.8281H15.3125L15.1758 23.6719L14.7852 23.2812L14.6484 23.125L14.4141 22.8711L14.2383 22.6562L14.0234 22.4219L13.8672 22.2266L13.6719 21.9922L13.457 21.7188L13.2617 21.4648L12.7148 20.7227L12.2461 20.0586L12.0312 19.7266L11.7383 19.2383L11.5039 18.7891L11.3477 18.4766L11.1328 17.9688L10.9375 17.4219L10.8008 16.8945L10.7227 16.4844L10.6641 15.957V15.332L10.7031 14.9219L10.7812 14.4727L10.8984 14.0234L11.0352 13.6328L11.1914 13.2812L11.4062 12.8906L11.6211 12.5781L11.8359 12.3047L12.0703 12.0312L12.1484 11.9336H12.1875L12.2266 11.8555L12.4414 11.6406L12.7148 11.4453L12.9883 11.3086L13.2812 11.2305L13.4766 11.2109Z" fill="black"/>
</g>
</svg>
